<?xml version="1.0" encoding="UTF-8"?>
<svg xmlns="http://www.w3.org/2000/svg" xmlns:xlink="http://www.w3.org/1999/xlink" viewBox="6 6 36 36" version="1.1">
<g id="surface1">
<path style=" fill:black;" d="M 6 10 C 6 7.789063 7.789063 6 10 6 L 38 6 C 40.210938 6 42 7.789063 42 10 L 42 38 C 42 40.210938 40.210938 42 38 42 L 10 42 C 7.789063 42 6 40.210938 6 38 Z "/>
<path style=" fill:white;" d="M 9 9 L 9 39 L 39 39 L 39 9 Z M 26.015625 19.175781 L 21.015625 19.175781 L 21.015625 22.816406 L 25.476563 22.816406 L 25.476563 25.199219 L 21.015625 25.199219 L 21.015625 31 L 18.144531 31 L 18.144531 16.78125 L 26.015625 16.78125 Z M 30.222656 31 L 27.589844 31 L 27.589844 16.75 L 30.222656 16.75 Z "/>
</g>
</svg>
