<?xml version="1.0" encoding="UTF-8"?>
<svg xmlns="http://www.w3.org/2000/svg" xmlns:xlink="http://www.w3.org/1999/xlink" viewBox="0 0 26 26" version="1.1">
<g id="surface1">
<path style=" " d="M 0.8125 1 C 0.769531 1.019531 0.726563 1.039063 0.6875 1.0625 C 0.597656 1.09375 0.515625 1.132813 0.4375 1.1875 C 0.417969 1.195313 0.394531 1.207031 0.375 1.21875 C 0.273438 1.296875 0.191406 1.390625 0.125 1.5 C 0.101563 1.539063 0.0820313 1.582031 0.0625 1.625 C 0.046875 1.652344 0.015625 1.660156 0 1.6875 C -0.0078125 1.71875 0.00390625 1.75 0 1.78125 C -0.0234375 1.917969 -0.0234375 2.050781 0 2.1875 C 0.03125 2.359375 0.0976563 2.53125 0.21875 2.65625 C 0.378906 2.957031 1 4.167969 1 5.3125 C 1 6.234375 0.429688 7.074219 0.28125 7.28125 C 0.257813 7.300781 0.238281 7.320313 0.21875 7.34375 C 0.21875 7.34375 0.21875 7.375 0.21875 7.375 C 0.195313 7.394531 0.175781 7.414063 0.15625 7.4375 C 0.15625 7.449219 0.15625 7.457031 0.15625 7.46875 C 0.144531 7.480469 0.136719 7.488281 0.125 7.5 C 0.113281 7.519531 0.101563 7.542969 0.09375 7.5625 C 0.0820313 7.574219 0.0742188 7.582031 0.0625 7.59375 C 0.0625 7.605469 0.0625 7.613281 0.0625 7.625 C 0.0507813 7.644531 0.0390625 7.667969 0.03125 7.6875 C 0.03125 7.699219 0.03125 7.707031 0.03125 7.71875 C 0.0195313 7.738281 0.0078125 7.761719 0 7.78125 C 0 7.792969 0 7.800781 0 7.8125 C 0 7.84375 0 7.875 0 7.90625 C 0 7.917969 0 7.925781 0 7.9375 C 0 7.957031 0 7.980469 0 8 C 0 8.011719 0 8.019531 0 8.03125 C 0 8.050781 0 8.074219 0 8.09375 C 0 8.105469 0 8.113281 0 8.125 C 0 8.144531 0 8.167969 0 8.1875 C 0 8.199219 0 8.207031 0 8.21875 C 0.0078125 8.238281 0.0195313 8.261719 0.03125 8.28125 C 0.03125 8.292969 0.03125 8.300781 0.03125 8.3125 C 0.0390625 8.332031 0.0507813 8.355469 0.0625 8.375 C 0.0625 8.386719 0.0625 8.394531 0.0625 8.40625 C 0.0820313 8.429688 0.101563 8.449219 0.125 8.46875 C 0.125 8.480469 0.125 8.488281 0.125 8.5 C 0.136719 8.511719 0.144531 8.519531 0.15625 8.53125 C 0.175781 8.574219 0.195313 8.617188 0.21875 8.65625 C 0.378906 8.957031 1 10.167969 1 11.3125 C 1 12.234375 0.429688 13.074219 0.28125 13.28125 C 0.257813 13.300781 0.238281 13.320313 0.21875 13.34375 C 0.21875 13.34375 0.21875 13.375 0.21875 13.375 C 0.195313 13.394531 0.175781 13.414063 0.15625 13.4375 C 0.15625 13.449219 0.15625 13.457031 0.15625 13.46875 C 0.144531 13.480469 0.136719 13.488281 0.125 13.5 C 0.113281 13.519531 0.101563 13.542969 0.09375 13.5625 C 0.0820313 13.574219 0.0742188 13.582031 0.0625 13.59375 C 0.0625 13.605469 0.0625 13.613281 0.0625 13.625 C 0.0507813 13.644531 0.0390625 13.667969 0.03125 13.6875 C 0.03125 13.699219 0.03125 13.707031 0.03125 13.71875 C 0.0195313 13.738281 0.0078125 13.761719 0 13.78125 C 0 13.792969 0 13.800781 0 13.8125 C 0 13.84375 0 13.875 0 13.90625 C 0 13.917969 0 13.925781 0 13.9375 C 0 13.957031 0 13.980469 0 14 C 0 14.011719 0 14.019531 0 14.03125 C 0 14.050781 0 14.074219 0 14.09375 C 0 14.105469 0 14.113281 0 14.125 C 0 14.144531 0 14.167969 0 14.1875 C 0 14.199219 0 14.207031 0 14.21875 C 0.0078125 14.238281 0.0195313 14.261719 0.03125 14.28125 C 0.03125 14.292969 0.03125 14.300781 0.03125 14.3125 C 0.0390625 14.332031 0.0507813 14.355469 0.0625 14.375 C 0.0625 14.386719 0.0625 14.394531 0.0625 14.40625 C 0.0820313 14.429688 0.101563 14.449219 0.125 14.46875 C 0.125 14.480469 0.125 14.488281 0.125 14.5 C 0.136719 14.511719 0.144531 14.519531 0.15625 14.53125 C 0.175781 14.574219 0.195313 14.617188 0.21875 14.65625 C 0.378906 14.957031 1 16.167969 1 17.3125 C 1 18.367188 0.21875 19.375 0.21875 19.375 C 0.0390625 19.59375 -0.0390625 19.878906 0 20.15625 C 0.0429688 20.4375 0.203125 20.6875 0.4375 20.84375 L 6.28125 24.71875 L 6.4375 24.84375 C 6.46875 24.867188 6.5 24.886719 6.53125 24.90625 C 6.550781 24.917969 6.570313 24.929688 6.59375 24.9375 C 6.605469 24.9375 6.613281 24.9375 6.625 24.9375 C 6.632813 24.941406 6.648438 24.933594 6.65625 24.9375 C 6.675781 24.949219 6.699219 24.960938 6.71875 24.96875 C 6.78125 24.984375 6.84375 24.996094 6.90625 25 C 6.9375 25.003906 6.964844 25 7 25 C 7.042969 25.003906 7.082031 25.003906 7.125 25 L 14 25 C 14 25 15 24.5 15 23 L 15 18 C 14.398438 18 14 17.601563 14 17 L 14 13 C 14 12.398438 14.398438 12 15 12 L 16.40625 12 L 16.40625 11.59375 C 16.40625 11.195313 16.699219 11 17 11 C 17.300781 11 17.59375 11.292969 17.59375 11.59375 L 17.59375 12 L 19 12 C 19.601563 12 20 12.398438 20 13 L 20 17 C 20 17.601563 19.601563 18 19 18 L 19 23 C 19 24.5 18 25 18 25 L 24 25 C 25.199219 25 26 23.613281 26 21.3125 C 26 20.113281 25.8125 18.988281 25.3125 18.1875 C 25.710938 17.585938 26 16.613281 26 15.3125 C 26 14.113281 25.8125 12.988281 25.3125 12.1875 C 25.710938 11.585938 26 10.613281 26 9.3125 C 26 7.613281 25.511719 6.105469 24.8125 5.40625 L 24.6875 5.3125 L 24.5 5.3125 L 17.5 1.3125 C 17.300781 1.011719 17.199219 1 17 1 L 11 1 L 18.09375 5.40625 C 18.695313 5.804688 19 6.398438 19 7 L 19 11 L 18.3125 11 C 18.113281 10.5 17.601563 10.1875 17 10.1875 C 16.398438 10.1875 15.886719 10.5 15.6875 11 L 15 11 L 15 7 C 15 6.300781 14.695313 5.707031 14.09375 5.40625 L 7 1 L 1.03125 1 C 0.988281 0.996094 0.949219 0.996094 0.90625 1 C 0.875 1 0.84375 1 0.8125 1 Z M 2.9375 4.5 L 6.40625 6.8125 C 6.605469 7.011719 7 7.914063 7 9.3125 C 7 9.964844 6.898438 10.347656 6.8125 10.65625 L 2.375 7.6875 C 2.683594 7.09375 3 6.285156 3 5.3125 C 3 5.039063 2.972656 4.757813 2.9375 4.5 Z M 9 8 L 10 8 C 10.5 8.5 10.300781 10.699219 10 11 L 9 11 C 9.398438 10.601563 9.398438 8.398438 9 8 Z M 2.9375 10.53125 L 6.1875 12.6875 L 6.40625 12.90625 C 6.507813 13.007813 7 13.914063 7 15.3125 C 7 15.964844 6.898438 16.347656 6.8125 16.65625 L 2.375 13.6875 C 2.683594 13.09375 3 12.285156 3 11.3125 C 3 11.050781 2.96875 10.78125 2.9375 10.53125 Z M 15 13 L 15 17 L 16.40625 17 L 16.40625 14 L 17.59375 14 L 17.59375 17 L 19 17 L 19 13 Z M 9 14 L 10 14 C 10.5 14.5 10.300781 16.699219 10 17 L 9 17 C 9.398438 16.601563 9.398438 14.398438 9 14 Z M 2.9375 16.53125 L 6.1875 18.6875 L 6.40625 18.90625 C 6.507813 19.007813 7 19.914063 7 21.3125 C 7 21.964844 6.898438 22.347656 6.8125 22.65625 L 2.375 19.6875 C 2.683594 19.09375 3 18.285156 3 17.3125 C 3 17.050781 2.96875 16.78125 2.9375 16.53125 Z M 9 20 L 10 20 C 10.5 20.5 10.300781 22.699219 10 23 L 9 23 C 9.398438 22.601563 9.398438 20.398438 9 20 Z "/>
</g>
</svg>
